<?xml version="1.0" encoding="utf-8"?>
<!-- Generator: Adobe Illustrator 26.2.1, SVG Export Plug-In . SVG Version: 6.00 Build 0)  -->
<svg version="1.1" id="Layer_1" xmlns="http://www.w3.org/2000/svg" xmlns:xlink="http://www.w3.org/1999/xlink" x="0px" y="0px"
	 viewBox="0 0 271.3 81.4" style="enable-background:new 0 0 271.3 81.4;" xml:space="preserve">
<style type="text/css">
	.st0{fill:#444449;}
	.st1{fill:#7DB8E0;}
</style>
<g>
	<g>
		<g>
			<path class="st0" d="M55.4,80.4h-1.2c0-0.3,0-0.9,0-1.9c0-1,0-2.2,0-3.6c0-0.6,0-1.2,0-2c0-0.8,0-1.5,0-2.3h1.2
				c0,0.7,0,1.6,0,2.5c0,0.9,0,1.8,0,2.4c0,1.4,0,2.5,0,3.3C55.4,79.6,55.4,80.1,55.4,80.4z M61.8,79.7l-0.8,0.8
				c-1.2-1.1-2.3-2.2-3.4-3.2c-1.1-1-1.7-1.5-1.9-1.7v0c0.3-0.3,1-1,1.9-2c1-1,2-2.1,3-3.2l0.8,0.7c-0.8,0.8-1.7,1.7-2.6,2.6
				c-0.9,0.9-1.4,1.5-1.7,1.7l0,0c0.1,0.1,0.6,0.6,1.5,1.3C59.5,77.7,60.5,78.6,61.8,79.7z"/>
			<path class="st0" d="M72.1,70.6c0,0.8,0,1.6,0,2.6c0,1,0,1.7,0,2.1c0,1.4,0,2.5,0,3.3c0,0.8,0,1.3,0,1.3l-1,0.5
				c-1.5-2-2.9-3.8-4.1-5.4c-1.3-1.6-2-2.5-2.2-2.8l0,0c0,1.3,0,2.9,0,4.8c0,1.9,0,3,0,3.3h-1.1c0-0.1,0-0.6,0-1.3
				c0-0.7,0-1.8,0-3.1c0-0.5,0-1.2,0-2.1c0-0.9,0-1.8,0-2.8l1.1-0.5c0.1,0.1,0.8,1.1,2.3,2.9c1.4,1.8,2.7,3.5,4,5l0,0
				c0-0.8,0-2,0-3.8c0-1.8,0-3.1,0-4H72.1z"/>
			<path class="st0" d="M84.2,75.5c0,0.8-0.1,1.5-0.4,2.2c-0.3,0.7-0.6,1.2-1.1,1.6c-0.5,0.5-1,0.8-1.5,1c-0.5,0.2-1.1,0.3-1.7,0.3
				c-0.6,0-1.2-0.1-1.7-0.3c-0.5-0.2-1-0.5-1.5-0.9c-0.5-0.4-0.9-1-1.1-1.7c-0.3-0.7-0.4-1.4-0.4-2.3c0-0.8,0.1-1.4,0.3-2.1
				c0.2-0.6,0.6-1.2,1-1.7c0.4-0.5,0.9-0.8,1.5-1.1c0.6-0.3,1.2-0.4,1.9-0.4c0.7,0,1.3,0.1,1.8,0.4c0.6,0.2,1,0.6,1.5,1
				c0.5,0.5,0.8,1.1,1.1,1.7C84.1,74,84.2,74.7,84.2,75.5z M83,75.6c0-0.6-0.1-1.3-0.3-1.9c-0.2-0.6-0.5-1.1-1-1.5
				c-0.3-0.3-0.6-0.5-1-0.7c-0.4-0.2-0.8-0.2-1.2-0.2c-0.4,0-0.9,0.1-1.2,0.2c-0.4,0.2-0.7,0.4-1,0.7c-0.4,0.4-0.7,0.9-0.9,1.5
				c-0.2,0.6-0.3,1.2-0.3,1.8c0,0.7,0.1,1.3,0.3,1.9c0.2,0.6,0.5,1,0.9,1.4c0.3,0.3,0.6,0.5,1,0.6c0.4,0.2,0.8,0.2,1.2,0.2
				c0.4,0,0.8-0.1,1.2-0.2c0.4-0.2,0.7-0.4,1-0.7c0.4-0.4,0.7-0.8,0.9-1.3C82.9,76.9,83,76.3,83,75.6z"/>
			<path class="st0" d="M100.3,70.8c-0.8,2.2-1.6,4.3-2.3,6.4c-0.7,2.1-1.1,3.2-1.1,3.3h-1c0-0.1-0.3-0.9-0.8-2.3
				c-0.5-1.5-1.2-3.3-2-5.5h0c-0.7,1.8-1.4,3.5-2,5.2c-0.6,1.6-0.9,2.5-1,2.6h-1c0-0.1-0.4-1.1-0.9-2.9c-0.6-1.8-1.4-4-2.4-6.7
				l1.2-0.5c0,0.1,0.3,0.9,0.9,2.6c0.6,1.7,1.2,3.5,1.9,5.6l0,0c0.8-1.9,1.4-3.6,2-5.2c0.6-1.6,0.9-2.4,0.9-2.5h1.1
				c0,0.1,0.3,1,0.9,2.7c0.6,1.7,1.2,3.4,1.8,5l0,0c0.8-2.1,1.4-4,2-5.6c0.5-1.6,0.8-2.5,0.8-2.5L100.3,70.8z"/>
			<path class="st0" d="M114.6,80l-1.1,0.6c0-0.1-0.2-0.4-0.5-1.1c-0.3-0.7-0.7-1.5-1.2-2.6h-4.3c-0.5,1.1-0.9,2-1.2,2.7
				c-0.3,0.6-0.4,1-0.5,1.1l-1-0.5c0.1-0.3,0.7-1.4,1.6-3.4c0.9-2,1.9-4.1,2.9-6.3h1c1,2.2,1.9,4.3,2.9,6.4
				C114,78.9,114.5,79.9,114.6,80z M111.4,76c-0.3-0.6-0.5-1.2-0.8-1.9c-0.3-0.7-0.6-1.3-0.9-2l0,0c-0.2,0.5-0.5,1.2-0.9,2
				c-0.3,0.8-0.6,1.4-0.9,1.9l0,0L111.4,76L111.4,76z"/>
			<path class="st0" d="M124.8,70.6c0,0.8,0,1.6,0,2.6c0,1,0,1.7,0,2.1c0,1.4,0,2.5,0,3.3c0,0.8,0,1.3,0,1.3l-1,0.5
				c-1.5-2-2.9-3.8-4.1-5.4c-1.3-1.6-2-2.5-2.2-2.8l0,0c0,1.3,0,2.9,0,4.8c0,1.9,0,3,0,3.3h-1.1c0-0.1,0-0.6,0-1.3
				c0-0.7,0-1.8,0-3.1c0-0.5,0-1.2,0-2.1c0-0.9,0-1.8,0-2.8l1.1-0.5c0.1,0.1,0.8,1.1,2.3,2.9c1.4,1.8,2.7,3.5,4,5l0,0
				c0-0.8,0-2,0-3.8c0-1.8,0-3.1,0-4H124.8z"/>
			<path class="st0" d="M136.5,75.6c0,0.9-0.2,1.6-0.6,2.3c-0.4,0.7-1,1.2-1.6,1.6c-0.6,0.3-1.2,0.6-2,0.8c-0.7,0.2-1.5,0.3-2.4,0.3
				c-0.3,0-0.7,0-1,0c-0.3,0-0.5,0-0.5,0c0,0,0-0.6,0-1.7c0-1.1,0-2.2,0-3.1c0-0.5,0-1.2,0-2c0-0.8,0-1.8,0-3c0,0,0.3,0,0.7,0
				c0.4,0,0.6,0,0.6,0c1,0,1.9,0.1,2.7,0.3c0.8,0.2,1.5,0.5,2.1,0.9c0.7,0.5,1.2,1,1.6,1.6C136.3,74,136.5,74.7,136.5,75.6z
				 M135.2,75.5c0-0.6-0.1-1.2-0.4-1.7c-0.3-0.5-0.7-1-1.3-1.3c-0.6-0.3-1.2-0.6-1.8-0.7c-0.7-0.1-1.3-0.2-1.8-0.2
				c-0.1,0-0.1,0-0.2,0c-0.1,0-0.1,0-0.2,0c0,0.8,0,1.4,0,1.9c0,0.5,0,0.9,0,1.2c0,0.2,0,0.7,0,1.5c0,0.8,0,1.9,0,3.3
				c0.1,0,0.1,0,0.2,0s0.1,0,0.2,0c0.6,0,1.3-0.1,1.9-0.2c0.6-0.1,1.2-0.4,1.6-0.6c0.6-0.3,1-0.8,1.3-1.3
				C135,76.9,135.2,76.2,135.2,75.5z"/>
			<path class="st0" d="M147.9,77.6c0,0.5-0.1,0.9-0.4,1.3c-0.2,0.4-0.6,0.7-1,0.9c-0.4,0.2-0.8,0.4-1.3,0.5c-0.5,0.1-1,0.2-1.6,0.2
				c-0.3,0-0.6,0-1,0c-0.3,0-0.5,0-0.6,0l-0.1-1.1c0.1,0,0.3,0,0.6,0.1c0.3,0,0.7,0,1.1,0c0.3,0,0.6,0,1-0.1
				c0.4-0.1,0.7-0.2,0.9-0.3c0.3-0.1,0.5-0.3,0.7-0.5c0.2-0.2,0.2-0.5,0.2-0.8c0-0.3-0.1-0.6-0.2-0.8c-0.2-0.2-0.4-0.4-0.8-0.7
				c-0.2-0.1-0.5-0.3-0.9-0.5c-0.4-0.2-0.7-0.3-1-0.5c-0.5-0.3-0.9-0.6-1.1-1c-0.2-0.4-0.3-0.8-0.3-1.2c0-0.5,0.1-0.8,0.3-1.2
				c0.2-0.3,0.4-0.6,0.8-0.8c0.3-0.2,0.7-0.4,1.2-0.5c0.5-0.1,1-0.2,1.5-0.2c0.3,0,0.6,0,0.9,0c0.3,0,0.5,0,0.5,0l0.1,1.1
				c0,0-0.2,0-0.5-0.1c-0.3,0-0.7,0-1.2,0c-0.3,0-0.6,0-0.8,0.1c-0.3,0.1-0.5,0.2-0.8,0.3c-0.2,0.1-0.4,0.3-0.5,0.5
				c-0.1,0.2-0.2,0.4-0.2,0.7c0,0.2,0.1,0.5,0.2,0.7c0.1,0.2,0.4,0.5,0.8,0.7c0.2,0.1,0.5,0.3,0.8,0.4c0.3,0.2,0.7,0.3,1,0.5
				c0.5,0.3,0.9,0.6,1.1,1C147.8,76.7,147.9,77.2,147.9,77.6z"/>
			<path class="st0" d="M156.8,80.4c0,0-0.4,0-1,0c-0.6,0-1.4,0-2.3,0c-0.6,0-1.2,0-1.7,0c-0.5,0-1,0-1.3,0c0-0.3,0-0.9,0-1.8
				c0-0.9,0-1.9,0-2.9c0-0.6,0-1.3,0-2.2c0-0.9,0-1.9,0-2.8c0.3,0,0.8,0,1.3,0c0.5,0,1.1,0,1.6,0c0.9,0,1.7,0,2.3,0c0.6,0,0.9,0,1,0
				v1c0,0-0.4,0-0.9,0c-0.6,0-1.3,0-2.1,0c-0.4,0-0.7,0-1.1,0c-0.4,0-0.6,0-0.8,0c0,0.6,0,1.1,0,1.7c0,0.6,0,1.1,0,1.6
				c0.2,0,0.5,0,0.8,0c0.3,0,0.6,0,0.8,0c0.9,0,1.6,0,2.3,0c0.7,0,1,0,1.1,0v1c0,0-0.4,0-1.2,0c-0.8,0-1.5,0-2.1,0
				c-0.2,0-0.5,0-0.8,0c-0.3,0-0.6,0-0.8,0c0,0.9,0,1.7,0,2.2c0,0.5,0,1,0,1.4c0.3,0,0.6,0,1,0c0.4,0,0.9,0,1.3,0c0.7,0,1.3,0,1.8,0
				c0.5,0,0.8,0,0.8,0V80.4z"/>
			<path class="st0" d="M165.9,80.4c0,0-0.4,0-1,0c-0.6,0-1.4,0-2.3,0c-0.6,0-1.2,0-1.7,0c-0.5,0-1,0-1.3,0c0-0.3,0-0.9,0-1.8
				c0-0.9,0-1.9,0-2.9c0-0.6,0-1.3,0-2.2c0-0.9,0-1.9,0-2.8c0.3,0,0.8,0,1.3,0c0.5,0,1.1,0,1.6,0c0.9,0,1.7,0,2.3,0c0.6,0,0.9,0,1,0
				v1c0,0-0.4,0-0.9,0c-0.6,0-1.3,0-2.1,0c-0.4,0-0.7,0-1.1,0c-0.4,0-0.6,0-0.8,0c0,0.6,0,1.1,0,1.7c0,0.6,0,1.1,0,1.6
				c0.2,0,0.5,0,0.8,0c0.3,0,0.6,0,0.8,0c0.9,0,1.6,0,2.3,0c0.7,0,1,0,1.1,0v1c0,0-0.4,0-1.2,0c-0.8,0-1.5,0-2.1,0
				c-0.2,0-0.5,0-0.8,0c-0.3,0-0.6,0-0.8,0c0,0.9,0,1.7,0,2.2c0,0.5,0,1,0,1.4c0.3,0,0.6,0,1,0c0.4,0,0.9,0,1.3,0c0.7,0,1.3,0,1.8,0
				c0.5,0,0.8,0,0.8,0V80.4z"/>
			<path class="st0" d="M179.4,71.1c0,0-0.5,0.7-1.5,1.8c-0.9,1.2-1.7,2.1-2.2,2.8c0,0.9,0,1.8,0,2.8c0,1,0,1.6,0,1.9h-1.2
				c0-0.3,0-0.9,0-1.9c0-1,0-1.9,0-2.7c-0.6-0.8-1.3-1.7-2.2-2.9c-0.9-1.1-1.4-1.7-1.4-1.8l1-0.7c0.1,0.1,0.4,0.6,1.2,1.5
				c0.7,0.9,1.4,1.9,2.1,2.8h0c0.7-0.9,1.4-1.8,2.2-2.8c0.8-1,1.2-1.5,1.2-1.6L179.4,71.1z"/>
			<path class="st0" d="M189.9,75.5c0,0.8-0.1,1.5-0.4,2.2c-0.3,0.7-0.6,1.2-1.1,1.6c-0.5,0.5-1,0.8-1.5,1s-1.1,0.3-1.7,0.3
				c-0.6,0-1.2-0.1-1.7-0.3c-0.5-0.2-1-0.5-1.5-0.9c-0.5-0.4-0.9-1-1.1-1.7c-0.3-0.7-0.4-1.4-0.4-2.3c0-0.8,0.1-1.4,0.3-2.1
				c0.2-0.6,0.6-1.2,1-1.7c0.4-0.5,0.9-0.8,1.5-1.1s1.2-0.4,1.9-0.4c0.7,0,1.3,0.1,1.8,0.4s1,0.6,1.5,1c0.5,0.5,0.8,1.1,1.1,1.7
				C189.8,74,189.9,74.7,189.9,75.5z M188.6,75.6c0-0.6-0.1-1.3-0.3-1.9c-0.2-0.6-0.5-1.1-1-1.5c-0.3-0.3-0.6-0.5-1-0.7
				c-0.4-0.2-0.8-0.2-1.2-0.2c-0.4,0-0.9,0.1-1.2,0.2c-0.4,0.2-0.7,0.4-1,0.7c-0.4,0.4-0.7,0.9-0.9,1.5c-0.2,0.6-0.3,1.2-0.3,1.8
				c0,0.7,0.1,1.3,0.3,1.9c0.2,0.6,0.5,1,0.9,1.4c0.3,0.3,0.6,0.5,1,0.6c0.4,0.2,0.8,0.2,1.2,0.2c0.4,0,0.8-0.1,1.2-0.2
				c0.4-0.2,0.7-0.4,1-0.7c0.4-0.4,0.7-0.8,0.9-1.3C188.5,76.9,188.6,76.3,188.6,75.6z"/>
			<path class="st0" d="M200.6,70.6c0,0.9,0,1.7,0,2.3c0,0.6,0,1.1,0,1.6c0,0.6,0,1,0,1.4c0,0.4,0,0.7,0,1c0,0.6-0.1,1.1-0.3,1.5
				c-0.2,0.4-0.4,0.8-0.8,1.1s-0.8,0.6-1.3,0.8c-0.5,0.2-1.1,0.3-1.7,0.3c-0.7,0-1.2-0.1-1.7-0.3c-0.5-0.2-0.9-0.4-1.3-0.8
				c-0.3-0.3-0.6-0.7-0.8-1.1c-0.2-0.4-0.3-0.9-0.3-1.5c0-0.3,0-0.6,0-1c0-0.4,0-0.9,0-1.4c0-0.5,0-1,0-1.6c0-0.6,0-1.4,0-2.3h1.2
				c0,0.1,0,0.5,0,1.3c0,0.7,0,1.6,0,2.8c0,0.4,0,0.7,0,1.1c0,0.4,0,0.8,0,1.2c0,0.9,0.3,1.6,0.8,2c0.5,0.5,1.2,0.7,2.1,0.7
				c0.9,0,1.7-0.2,2.1-0.7c0.5-0.4,0.7-1.1,0.7-2.1c0-0.4,0-0.8,0-1.2c0-0.4,0-0.7,0-1.1c0-1.2,0-2.1,0-2.8c0-0.7,0-1.1,0-1.2H200.6
				z"/>
			<path class="st0" d="M211.5,79.8l-0.9,0.8c-0.1-0.1-0.5-0.5-1.1-1.3c-0.7-0.7-1.7-1.9-3-3.5l0-0.1c0.2,0,0.4-0.2,0.7-0.3
				c0.3-0.2,0.6-0.3,0.8-0.5c0.2-0.2,0.3-0.4,0.5-0.6c0.1-0.2,0.2-0.6,0.2-1c0-0.4-0.1-0.7-0.3-1c-0.2-0.3-0.5-0.5-0.8-0.6
				c-0.3-0.1-0.6-0.2-0.9-0.2s-0.6,0-0.9,0c-0.2,0-0.3,0-0.4,0c-0.1,0-0.2,0-0.2,0c0,0.9,0,1.8,0,2.5c0,0.7,0,1.2,0,1.5
				c0,0.7,0,1.6,0,2.7c0,1.2,0,1.9,0,2.2h-1.2c0-0.3,0-0.9,0-1.7c0-0.8,0-1.9,0-3.2c0-0.2,0-0.7,0-1.4c0-0.7,0-1.9,0-3.6
				c0,0,0.3,0,0.7,0c0.4,0,0.8,0,1.2,0c0.4,0,0.8,0,1.2,0.1c0.4,0,0.8,0.2,1.2,0.3c0.5,0.2,0.9,0.5,1.2,0.9c0.3,0.4,0.4,0.9,0.4,1.4
				c0,0.7-0.2,1.3-0.6,1.7s-0.8,0.8-1.2,1v0c0.7,0.8,1.4,1.6,2.2,2.4C211,79.3,211.4,79.8,211.5,79.8z"/>
			<path class="st0" d="M223.4,73.9c0,0.7-0.2,1.4-0.7,1.9c-0.5,0.6-1.1,1-1.9,1.2c-0.3,0.1-0.7,0.2-1.1,0.2c-0.4,0-0.8,0.1-1.3,0.1
				l0,3.1h-1.2c0-0.3,0-0.8,0-1.6c0-0.8,0-2,0-3.7c0-0.5,0-1.2,0-1.9c0-0.8,0-1.6,0-2.6c0.2,0,0.4,0,0.6,0c0.2,0,0.4,0,0.5,0
				c0.8,0,1.6,0.1,2.2,0.2s1.1,0.3,1.5,0.6c0.4,0.3,0.8,0.6,1,1.1C223.2,72.8,223.4,73.3,223.4,73.9z M222.1,73.9
				c0-0.5-0.1-0.9-0.3-1.3s-0.6-0.6-1.1-0.8c-0.3-0.1-0.6-0.2-1-0.2c-0.3,0-0.7,0-1.1,0c0,0-0.1,0-0.1,0s-0.1,0-0.1,0
				c0,0.1,0,0.4,0,1.1c0,0.7,0,1.2,0,1.6c0,0.4,0,0.8,0,1.3c0,0.5,0,0.8,0,0.8c0,0,0.1,0,0.2,0c0.1,0,0.1,0,0.1,0c0.3,0,0.7,0,1-0.1
				c0.4,0,0.7-0.1,1-0.2c0.5-0.2,0.8-0.5,1.1-0.8C222,74.9,222.1,74.5,222.1,73.9z"/>
			<path class="st0" d="M232,80.4c0,0-0.4,0-1,0c-0.6,0-1.4,0-2.3,0c-0.6,0-1.2,0-1.7,0c-0.5,0-1,0-1.3,0c0-0.3,0-0.9,0-1.8
				c0-0.9,0-1.9,0-2.9c0-0.6,0-1.3,0-2.2c0-0.9,0-1.9,0-2.8c0.3,0,0.8,0,1.3,0c0.5,0,1.1,0,1.6,0c0.9,0,1.7,0,2.3,0c0.6,0,0.9,0,1,0
				v1c0,0-0.4,0-0.9,0c-0.6,0-1.3,0-2.1,0c-0.4,0-0.7,0-1.1,0c-0.4,0-0.6,0-0.8,0c0,0.6,0,1.1,0,1.7c0,0.6,0,1.1,0,1.6
				c0.2,0,0.5,0,0.8,0c0.3,0,0.6,0,0.8,0c0.9,0,1.6,0,2.3,0c0.7,0,1,0,1.1,0v1c0,0-0.4,0-1.2,0c-0.8,0-1.5,0-2.1,0
				c-0.2,0-0.5,0-0.8,0c-0.3,0-0.6,0-0.8,0c0,0.9,0,1.7,0,2.2c0,0.5,0,1,0,1.4c0.3,0,0.6,0,1,0c0.4,0,0.9,0,1.3,0c0.7,0,1.3,0,1.8,0
				c0.5,0,0.8,0,0.8,0V80.4z"/>
			<path class="st0" d="M243.5,75.5c0,0.8-0.1,1.5-0.4,2.2c-0.3,0.7-0.6,1.2-1.1,1.6c-0.5,0.5-1,0.8-1.5,1s-1.1,0.3-1.7,0.3
				c-0.6,0-1.2-0.1-1.7-0.3c-0.5-0.2-1-0.5-1.5-0.9c-0.5-0.4-0.9-1-1.1-1.7c-0.3-0.7-0.4-1.4-0.4-2.3c0-0.8,0.1-1.4,0.3-2.1
				c0.2-0.6,0.6-1.2,1-1.7c0.4-0.5,0.9-0.8,1.5-1.1s1.2-0.4,1.9-0.4c0.7,0,1.3,0.1,1.8,0.4s1,0.6,1.5,1c0.5,0.5,0.8,1.1,1.1,1.7
				C243.4,74,243.5,74.7,243.5,75.5z M242.2,75.6c0-0.6-0.1-1.3-0.3-1.9c-0.2-0.6-0.5-1.1-1-1.5c-0.3-0.3-0.6-0.5-1-0.7
				c-0.4-0.2-0.8-0.2-1.2-0.2c-0.4,0-0.9,0.1-1.2,0.2c-0.4,0.2-0.7,0.4-1,0.7c-0.4,0.4-0.7,0.9-0.9,1.5c-0.2,0.6-0.3,1.2-0.3,1.8
				c0,0.7,0.1,1.3,0.3,1.9c0.2,0.6,0.5,1,0.9,1.4c0.3,0.3,0.6,0.5,1,0.6c0.4,0.2,0.8,0.2,1.2,0.2c0.4,0,0.8-0.1,1.2-0.2
				c0.4-0.2,0.7-0.4,1-0.7c0.4-0.4,0.7-0.8,0.9-1.3C242.1,76.9,242.2,76.3,242.2,75.6z"/>
			<path class="st0" d="M252.3,73.9c0,0.7-0.2,1.4-0.7,1.9c-0.5,0.6-1.1,1-1.9,1.2c-0.3,0.1-0.7,0.2-1.1,0.2c-0.4,0-0.8,0.1-1.3,0.1
				l0,3.1h-1.2c0-0.3,0-0.8,0-1.6c0-0.8,0-2,0-3.7c0-0.5,0-1.2,0-1.9c0-0.8,0-1.6,0-2.6c0.2,0,0.4,0,0.6,0c0.2,0,0.4,0,0.5,0
				c0.8,0,1.6,0.1,2.2,0.2s1.1,0.3,1.5,0.6c0.4,0.3,0.8,0.6,1,1.1C252.2,72.8,252.3,73.3,252.3,73.9z M251,73.9
				c0-0.5-0.1-0.9-0.3-1.3s-0.6-0.6-1.1-0.8c-0.3-0.1-0.6-0.2-1-0.2c-0.3,0-0.7,0-1.1,0c0,0-0.1,0-0.1,0s-0.1,0-0.1,0
				c0,0.1,0,0.4,0,1.1c0,0.7,0,1.2,0,1.6c0,0.4,0,0.8,0,1.3c0,0.5,0,0.8,0,0.8c0,0,0.1,0,0.2,0c0.1,0,0.1,0,0.1,0c0.3,0,0.7,0,1-0.1
				c0.4,0,0.7-0.1,1-0.2c0.5-0.2,0.8-0.5,1.1-0.8C250.9,74.9,251,74.5,251,73.9z"/>
			<path class="st0" d="M260.7,80.4c-0.1,0-0.4,0-0.9,0c-0.6,0-1.3,0-2.1,0c-0.6,0-1.1,0-1.6,0c-0.5,0-1,0-1.3,0c0-0.8,0-1.7,0-2.6
				c0-0.9,0-1.7,0-2.5c0-1.4,0-2.4,0-3.2c0-0.7,0-1.2,0-1.5h1.2c0,0.6,0,1.4,0,2.2c0,0.8,0,1.5,0,2c0,1.3,0,2.4,0,3.2
				c0,0.9,0,1.3,0,1.4c0.2,0,0.4,0,0.7,0c0.3,0,0.5,0,0.8,0c0.9,0,1.6,0,2.3,0c0.6,0,1,0,1,0V80.4z"/>
			<path class="st0" d="M269,80.4c0,0-0.4,0-1,0c-0.6,0-1.4,0-2.3,0c-0.6,0-1.2,0-1.7,0c-0.5,0-1,0-1.3,0c0-0.3,0-0.9,0-1.8
				c0-0.9,0-1.9,0-2.9c0-0.6,0-1.3,0-2.2c0-0.9,0-1.9,0-2.8c0.3,0,0.8,0,1.3,0c0.5,0,1.1,0,1.6,0c0.9,0,1.7,0,2.3,0c0.6,0,0.9,0,1,0
				v1c0,0-0.4,0-0.9,0c-0.6,0-1.3,0-2.1,0c-0.4,0-0.7,0-1.1,0c-0.4,0-0.6,0-0.8,0c0,0.6,0,1.1,0,1.7c0,0.6,0,1.1,0,1.6
				c0.2,0,0.5,0,0.8,0c0.3,0,0.6,0,0.8,0c0.9,0,1.6,0,2.3,0c0.7,0,1,0,1.1,0v1c0,0-0.4,0-1.2,0c-0.8,0-1.5,0-2.1,0
				c-0.2,0-0.5,0-0.8,0c-0.3,0-0.6,0-0.8,0c0,0.9,0,1.7,0,2.2c0,0.5,0,1,0,1.4c0.3,0,0.6,0,1,0c0.4,0,0.9,0,1.3,0c0.7,0,1.3,0,1.8,0
				c0.5,0,0.8,0,0.8,0V80.4z"/>
		</g>
	</g>
	<g>
		<path class="st1" d="M91,65c-0.6,0-1.2,0-1.7,0c-2.5,0-5.2,0.1-7.6-0.8c-1.1-0.4-2-1.1-2.7-2c-0.7-1.1-0.9-2.5-0.7-3.8
			c0-0.5,0.1-0.9,0.2-1.4c0.1-0.7-0.2-1.5-0.6-2c-0.4-0.6-0.8-1.2-0.9-2c0-0.3,0-0.6,0-0.9c0.1-0.2,0.2-0.4,0.4-0.6
			c0-0.1,0-0.1,0.1-0.2c-0.7-0.3-1.3-0.9-1.4-1.6c-0.1-0.9,0.2-1.8,0.4-2.6c0.2-0.9,0.3-1.9-0.7-2.3c-0.5-0.2-1-0.2-1.5-0.5
			c-0.5-0.3-1-0.8-1.2-1.4c-1-2,1-4,2.3-5.4c0.8-0.9,1.6-1.8,2.3-2.8c0.7-1,1.3-2.1,1.3-3.3c0-1.2-0.3-2.3-0.4-3.5
			c-0.2-1.2,0-2.3,0.3-3.5c0.6-2.3,1.1-4.6,1.9-6.9c1.5-4.6,4.8-8.3,8.6-11c1-0.7,2.1-1.4,3.3-2c0.6-0.3,1.2-0.5,1.8-0.7l-1-3.2
			H38.9v1.4c2.5,0.3,6.9,1,9.2,1.9c1.2,0.5,2.5,0.8,3.7,1.4c1.1,0.5,2.2,1.2,3.3,2c3.8,2.8,7.1,6.4,8.5,10.9
			c0.7,2.2,1.2,4.5,1.9,6.8c0.3,1.2,0.5,2.2,0.3,3.4c-0.1,1.1-0.4,2.3-0.4,3.4c0,1.2,0.6,2.3,1.3,3.3c0.7,1,1.5,1.9,2.3,2.8
			c1.2,1.4,3.2,3.3,2.3,5.4c-0.3,0.5-0.7,1.1-1.2,1.4c-0.5,0.3-1,0.3-1.5,0.5c-1,0.4-0.8,1.4-0.7,2.3c0.2,0.8,0.5,1.7,0.4,2.6
			c-0.1,0.7-0.7,1.2-1.4,1.6c0,0.1,0.1,0.1,0.1,0.2c0.1,0.2,0.3,0.4,0.4,0.6c0.1,0.3,0.1,0.6,0,0.8c-0.1,0.7-0.5,1.3-0.9,1.9
			c-0.3,0.6-0.7,1.3-0.6,2c0.1,0.4,0.2,0.9,0.2,1.4c0.1,1.3,0,2.7-0.7,3.8c-0.6,1-1.6,1.6-2.6,2c-2.4,0.9-5,0.8-7.5,0.8
			c-1.1,0-2.2,0-3.2,0.2c-0.4,0.1-0.8,0.2-1.1,0.3c-0.2,0.1-0.2,0.1-0.4,0.2c-0.1,0.1-0.2,0.3-0.3,0.6c-0.1,0.2-0.2,0.4-0.3,0.6
			h39.7h5.1h38l0.6-2h-18.8H91z"/>
		<rect x="43" y="7.4" class="st1" width="5.4" height="5.5"/>
		<rect x="43" y="21" class="st1" width="5.4" height="5.4"/>
		<rect x="43" y="27.8" class="st1" width="5.4" height="5.5"/>
		<rect x="43" y="41.3" class="st1" width="5.4" height="5.5"/>
		<rect x="36.2" y="61.6" class="st1" width="5.4" height="5.4"/>
		<rect x="43" y="61.6" class="st1" width="5.4" height="5.4"/>
		<rect x="43" y="55" class="st1" width="5.4" height="5.4"/>
		<rect x="49.6" y="48.1" class="st1" width="5.4" height="5.4"/>
		<rect x="56.4" y="34.6" class="st1" width="5.4" height="5.4"/>
		<rect x="56.4" y="41.3" class="st1" width="5.4" height="5.5"/>
		<rect x="49.6" y="34.6" class="st1" width="5.4" height="5.4"/>
		<rect x="49.6" y="41.3" class="st1" width="5.4" height="5.5"/>
		<rect x="49.6" y="27.8" class="st1" width="5.4" height="5.5"/>
		<rect x="49.6" y="14.2" class="st1" width="5.4" height="5.4"/>
		<rect x="9.2" y="27.8" class="st1" width="5.5" height="5.5"/>
		<rect x="9.2" y="34.6" class="st1" width="5.5" height="5.4"/>
		<rect x="16" y="14.2" class="st1" width="5.4" height="5.4"/>
		<rect x="9.2" y="55" class="st1" width="5.5" height="5.4"/>
		<rect x="36.2" y="48.1" class="st1" width="5.4" height="5.4"/>
		<rect x="2.3" y="21" class="st1" width="5.4" height="5.4"/>
		<rect x="29.4" y="48.1" class="st1" width="5.4" height="5.4"/>
		<rect x="29.4" y="34.6" class="st1" width="5.4" height="5.4"/>
		<rect x="29.4" y="61.6" class="st1" width="5.4" height="5.4"/>
		<rect x="29.4" y="14.2" class="st1" width="5.4" height="5.4"/>
		<rect x="29.4" y="21" class="st1" width="5.4" height="5.4"/>
		<rect x="29.4" y="7.4" class="st1" width="5.4" height="5.5"/>
		<rect x="36.2" y="34.6" class="st1" width="5.4" height="5.4"/>
		<rect x="36.2" y="27.8" class="st1" width="5.4" height="5.5"/>
		<rect x="16" y="34.4" class="st1" width="5.4" height="5.5"/>
		<rect x="36.2" y="41.3" class="st1" width="5.4" height="5.5"/>
		<rect x="36.2" y="21" class="st1" width="5.4" height="5.4"/>
		<rect x="36.2" y="14.2" class="st1" width="5.4" height="5.4"/>
		<rect x="22.7" y="0.7" class="st1" width="5.3" height="5.4"/>
		<rect x="22.7" y="7.4" class="st1" width="5.3" height="5.5"/>
		<rect x="16" y="48.1" class="st1" width="5.4" height="5.4"/>
		<rect x="22.7" y="55" class="st1" width="5.3" height="5.4"/>
		<rect x="22.7" y="27.8" class="st1" width="5.3" height="5.5"/>
		<rect x="22.7" y="41.3" class="st1" width="5.3" height="5.5"/>
		<rect x="22.7" y="21" class="st1" width="5.3" height="5.4"/>
		<rect x="9.2" y="16.2" class="st1" width="2.4" height="2.4"/>
		<rect x="17.1" y="1.9" class="st1" width="2.6" height="2.6"/>
		<rect x="51" y="23" class="st1" width="2.4" height="2.5"/>
		<rect x="45.5" y="49.5" class="st1" width="2.5" height="2.4"/>
		<rect x="29.8" y="30.1" class="st1" width="2.7" height="2.6"/>
		<rect x="30.8" y="0.8" class="st1" width="2.6" height="2.6"/>
		<rect x="6.4" y="45.7" class="st1" width="2.3" height="2.3"/>
		<rect x="51.6" y="56.6" class="st1" width="2.4" height="2.3"/>
		<polygon points="138.1,0.7 123.9,48 109.6,0.7 93.5,0.7 93.5,0.7 94.5,3.9 114.5,65 133.2,65 133.2,65 153.2,3.9 153.2,0.7 		"/>
		<path d="M189.1,41.4c7.1-3.6,11.9-10.8,11.9-18.7c0-12.2-9.8-22.1-22.1-22.1h-24.7l-1,3.2V65h14.7V43.9h7L187,65h15.8V65
			L189.1,41.4z M178.9,31h-11V14.5h11c4,0,7.4,3.6,7.4,8.3S183,31,178.9,31z"/>
		<polygon points="267.2,65 267.2,0.7 252.5,0.7 235,29.3 217.5,0.7 202.8,0.7 202.8,65 202.9,65 217.5,65 217.5,27.6 234.2,54.9 
			235.8,54.9 252.5,27.6 252.5,65 		"/>
		<rect x="141.5" y="49.9" width="8.5" height="15.1"/>
		<ellipse transform="matrix(0.1222 -0.9925 0.9925 0.1222 84.6411 182.8624)" cx="145.7" cy="43.6" rx="4.4" ry="4.4"/>
	</g>
</g>
</svg>
