<svg xmlns="http://www.w3.org/2000/svg" width="54" height="55" viewBox="0 0 54 55" fill="none"> <path d="M4.26653 54.1358H4.67321C4.67067 54.2592 4.64145 54.3806 4.58759 54.4916C4.53372 54.6026 4.45648 54.7005 4.36119 54.7787C4.15462 54.9198 3.91004 54.9946 3.66003 54.993C3.3825 54.9972 3.10891 54.9269 2.86772 54.7892C2.71319 54.685 2.59156 54.5388 2.51714 54.3677C2.43433 54.161 2.3915 53.9405 2.39092 53.7178C2.3863 53.4905 2.43556 53.2654 2.53466 53.0609C2.6235 52.8796 2.76699 52.7309 2.94484 52.6359C3.14545 52.532 3.36759 52.4766 3.59341 52.4743C3.85115 52.4558 4.1077 52.5238 4.32263 52.6675C4.43692 52.7234 4.53273 52.8111 4.59863 52.9201C4.66452 53.0291 4.69772 53.1548 4.69424 53.2822H4.28757C4.28778 53.2033 4.26673 53.1257 4.22663 53.0577C4.18652 52.9897 4.12885 52.9337 4.05969 52.8958C3.9319 52.8186 3.78469 52.7795 3.63548 52.7834C3.45738 52.7876 3.28437 52.8437 3.13766 52.945C3.01593 53.0298 2.92685 53.1537 2.88524 53.2963C2.83816 53.4341 2.81677 53.5793 2.82214 53.7249C2.81531 53.8914 2.84275 54.0576 2.90277 54.2131C2.95085 54.3371 3.03517 54.4436 3.14467 54.5187C3.28327 54.6191 3.45047 54.6721 3.62147 54.6698C3.78068 54.6875 3.94076 54.6449 4.07021 54.5504C4.18659 54.4428 4.25693 54.2942 4.26653 54.1358Z" fill="#1A4084"/> <path d="M40.811 54.1359H41.2071C41.2043 54.2588 41.1754 54.3798 41.1222 54.4907C41.069 54.6015 40.9928 54.6997 40.8986 54.7787C40.6918 54.9193 40.4474 54.9939 40.1975 54.993C39.92 54.9969 39.6465 54.9266 39.4052 54.7893C39.2494 54.6864 39.1274 54.5398 39.0546 54.3677C38.9686 54.1619 38.9245 53.941 38.9249 53.7178C38.9202 53.4906 38.9695 53.2654 39.0686 53.0609C39.1595 52.8811 39.3025 52.733 39.4788 52.6359C39.6797 52.5327 39.9016 52.4774 40.1274 52.4743C40.3862 52.4556 40.644 52.5235 40.8601 52.6675C40.9702 52.7267 41.0614 52.8158 41.1234 52.9245C41.1854 53.0332 41.2156 53.1572 41.2107 53.2823H40.8075C40.807 53.203 40.7852 53.1253 40.7445 53.0573C40.7038 52.9894 40.6457 52.9336 40.5761 52.8958C40.4498 52.8181 40.3036 52.779 40.1554 52.7834C39.9772 52.787 39.804 52.8432 39.6576 52.945C39.5349 53.0296 39.4447 53.1535 39.4017 53.2963C39.3574 53.4347 39.3372 53.5796 39.3421 53.7249C39.3342 53.8912 39.3605 54.0574 39.4192 54.2131C39.4674 54.338 39.5532 54.4448 39.6646 54.5188C39.803 54.6196 39.9703 54.6726 40.1414 54.6698C40.3006 54.6872 40.4605 54.6446 40.5901 54.5504C40.7144 54.446 40.7936 54.2974 40.811 54.1359Z" fill="#1A4084"/> <path d="M6.79072 52.5059H7.20792V53.911C7.21507 54.1066 7.18656 54.3018 7.12378 54.4871C7.05464 54.6356 6.94056 54.7585 6.79774 54.8384C6.60026 54.9338 6.38219 54.9785 6.16319 54.9684C5.95208 54.9772 5.74157 54.94 5.54617 54.8595C5.39564 54.7738 5.27369 54.6455 5.19559 54.4906C5.12464 54.2974 5.09247 54.0921 5.10093 53.8864V52.4813H5.52513V53.8864C5.4949 53.9804 5.48852 54.0803 5.50655 54.1774C5.52458 54.2744 5.56646 54.3653 5.62841 54.4421C5.69036 54.5188 5.77042 54.5788 5.86134 54.6167C5.95227 54.6547 6.05119 54.6693 6.14917 54.6592C6.2444 54.6636 6.33956 54.649 6.42919 54.6165C6.51882 54.5839 6.60116 54.534 6.67153 54.4696C6.78498 54.2978 6.83232 54.0906 6.80475 53.8864L6.79072 52.5059Z" fill="#1A4084"/> <path d="M7.56885 54.1394H7.96151C7.96151 54.6136 8.48037 54.6698 8.61709 54.6698C8.75382 54.6698 9.27968 54.6698 9.27968 54.2588C9.2796 54.1919 9.25809 54.1268 9.21834 54.073C9.17858 54.0193 9.12267 53.9797 9.05882 53.9602C8.99571 53.9356 8.70824 53.897 8.4979 53.8443C8.33729 53.8117 8.18087 53.761 8.03162 53.6932C7.91609 53.6427 7.8149 53.5643 7.73713 53.4649C7.68096 53.3756 7.65175 53.2719 7.65299 53.1663C7.65181 53.0418 7.68716 52.9196 7.75466 52.815C7.84673 52.6965 7.96737 52.6034 8.10524 52.5445C8.24535 52.487 8.39558 52.4584 8.54697 52.4602C8.75241 52.4585 8.95692 52.4881 9.15348 52.548C9.28214 52.5978 9.39233 52.6861 9.469 52.801C9.54601 52.9313 9.59051 53.0783 9.59871 53.2295H9.19906C9.1973 53.167 9.18232 53.1056 9.15513 53.0492C9.12793 52.9929 9.08914 52.943 9.04129 52.9028C8.88956 52.8138 8.71567 52.77 8.53996 52.7764C8.4747 52.7687 8.40857 52.7741 8.34539 52.7922C8.28221 52.8103 8.22323 52.8407 8.17185 52.8818C8.1311 52.911 8.0978 52.9495 8.07466 52.994C8.05151 53.0386 8.03917 53.088 8.03864 53.1382C8.03944 53.1752 8.04871 53.2116 8.06573 53.2445C8.08274 53.2774 8.10706 53.3059 8.1368 53.3279C8.29254 53.4035 8.45946 53.4533 8.63111 53.4754C8.83506 53.5161 9.03642 53.5689 9.23411 53.6335C9.37056 53.6865 9.49124 53.7736 9.58469 53.8864C9.64841 54.0036 9.67873 54.1361 9.67233 54.2693C9.66287 54.3963 9.61792 54.518 9.54262 54.6206C9.46487 54.7378 9.35544 54.8304 9.2271 54.8876C9.0339 54.9523 8.83131 54.9843 8.62761 54.9824C8.44058 54.9865 8.25463 54.9531 8.0807 54.8841C7.92951 54.8213 7.7985 54.718 7.70207 54.5855C7.62037 54.4506 7.57451 54.297 7.56885 54.1394Z" fill="#1A4084"/> <path d="M10.7348 54.9508V52.8221H9.90039V52.5375H11.9443V52.8221H11.1239V54.9508H10.7348Z" fill="#1A4084" stroke="#194183" stroke-width="0.1" stroke-miterlimit="10"/> <path d="M29.5925 54.9508V52.8221H28.7546V52.5375H30.802V52.8221H29.9887V54.9508H29.5925Z" fill="#1A4084" stroke="#194183" stroke-width="0.1" stroke-miterlimit="10"/> <path d="M42.2133 54.9508V52.8221H41.3789V52.5375H43.4228V52.8221H42.6095V54.9508H42.2133Z" fill="#1A4084" stroke="#194183" stroke-width="0.1" stroke-miterlimit="10"/> <path d="M12.1615 53.7529C12.1513 53.4064 12.2772 53.0696 12.512 52.815C12.6265 52.7007 12.7628 52.6107 12.9128 52.5503C13.0628 52.49 13.2234 52.4605 13.385 52.4637C13.6359 52.4712 13.8817 52.5361 14.1037 52.6534C14.2785 52.7597 14.4186 52.9148 14.5069 53.0996C14.6106 53.2892 14.666 53.5016 14.6681 53.7178C14.671 53.9457 14.6193 54.171 14.5174 54.3747C14.4264 54.5604 14.2808 54.7136 14.1002 54.8138C13.8789 54.9102 13.6403 54.9604 13.399 54.9614C13.1846 54.9738 12.9711 54.9263 12.782 54.8243C12.5875 54.7091 12.4258 54.5458 12.3122 54.3501C12.2178 54.1649 12.1663 53.9608 12.1615 53.7529ZM12.5611 53.7529C12.555 53.8742 12.5733 53.9955 12.6148 54.1095C12.6564 54.2236 12.7204 54.3281 12.803 54.4169C12.8752 54.4988 12.9643 54.5639 13.0643 54.6076C13.1642 54.6513 13.2725 54.6725 13.3815 54.6698C13.496 54.6776 13.6108 54.661 13.7184 54.6211C13.826 54.5811 13.9238 54.5187 14.0055 54.4379C14.1675 54.2409 14.25 53.9903 14.2369 53.7354C14.2458 53.5706 14.2171 53.406 14.1528 53.2541C14.0829 53.1084 13.972 52.9863 13.8337 52.9028C13.7075 52.8252 13.561 52.7872 13.413 52.7939C13.1905 52.7943 12.9769 52.8812 12.817 53.0363C12.7253 53.1302 12.6549 53.2428 12.6107 53.3665C12.5665 53.4902 12.5496 53.6221 12.5611 53.7529Z" fill="#1A4084"/> <path d="M43.6613 53.753C43.6505 53.4073 43.7765 53.0715 44.0119 52.8185C44.1257 52.7034 44.2619 52.6128 44.4121 52.5524C44.5622 52.492 44.7231 52.463 44.8848 52.4673C45.13 52.4756 45.3699 52.5406 45.586 52.657C45.7616 52.7618 45.9029 52.9156 45.9926 53.0996C46.0947 53.2897 46.1489 53.5019 46.1504 53.7178C46.1545 53.9454 46.104 54.1707 46.0032 54.3747C45.9118 54.5613 45.7648 54.7148 45.5825 54.8138C45.3621 54.9136 45.1231 54.9651 44.8813 54.9649C44.6678 54.9757 44.4554 54.9271 44.2678 54.8244C44.0718 54.7111 43.9096 54.5473 43.798 54.3501C43.708 54.164 43.6613 53.9598 43.6613 53.753ZM44.0609 53.753C44.0546 53.8734 44.0725 53.9939 44.1134 54.1073C44.1544 54.2208 44.2176 54.3248 44.2993 54.4134C44.3718 54.4949 44.461 54.5598 44.5609 54.6034C44.6607 54.6471 44.7689 54.6685 44.8778 54.6663C44.9925 54.6742 45.1076 54.658 45.2157 54.6187C45.3238 54.5793 45.4224 54.5178 45.5053 54.438C45.6706 54.2359 45.7533 53.9786 45.7367 53.7178C45.7457 53.5531 45.7169 53.3885 45.6526 53.2366C45.5806 53.0922 45.4702 52.9707 45.3335 52.8853C45.2072 52.808 45.0608 52.7701 44.9129 52.7764C44.6893 52.7766 44.4745 52.8635 44.3134 53.0188C44.2216 53.116 44.1519 53.232 44.109 53.3587C44.066 53.4854 44.0508 53.6198 44.0644 53.753H44.0609Z" fill="#1A4084"/> <path d="M15.0679 54.9508V52.5375H15.6393C15.6393 52.5375 16.2809 54.3782 16.3054 54.4555C16.3335 54.3677 16.968 52.5375 16.968 52.5375H17.5395V54.9508H17.1223V53.1488L16.4842 54.9508H16.1336L15.4325 53.082V54.9508H15.0679Z" fill="#1A4084"/> <path d="M18.0232 54.9508V52.5375H19.9549V52.8221H18.4369V53.5246H19.8392V53.8408H18.4369V54.6206H20.004V54.9473L18.0232 54.9508Z" fill="#1A4084"/> <path d="M20.4248 54.9508V52.5376H21.6659C21.8304 52.536 21.9944 52.5573 22.1532 52.6008C22.284 52.6518 22.3946 52.7445 22.4679 52.8646C22.5411 52.9846 22.573 53.1254 22.5587 53.2654C22.5444 53.4054 22.4846 53.5368 22.3885 53.6395C22.2925 53.7422 22.1655 53.8104 22.027 53.8338C22.0856 53.8617 22.138 53.9011 22.1812 53.9497C22.285 54.0441 22.3603 54.1658 22.3986 54.301L22.658 54.9544H22.2163L22.034 54.4766C21.9916 54.3515 21.9314 54.2331 21.8552 54.1253C21.8139 54.0696 21.7613 54.0233 21.7009 53.9894C21.6405 53.9555 21.5736 53.9348 21.5046 53.9286H21.1049H20.8245V54.9825L20.4248 54.9508ZM20.835 53.6019H21.6028C22.1286 53.6019 22.1391 53.2858 22.1391 53.205C22.1391 53.0504 22.0059 52.8537 21.6799 52.8537H20.835V53.6019Z" fill="#1A4084"/> <path d="M46.571 54.9508V52.5375H47.8121C47.9778 52.5363 48.1429 52.5576 48.3029 52.6008C48.4243 52.6486 48.5283 52.7324 48.601 52.841C48.6736 52.9496 48.7115 53.0778 48.7096 53.2085C48.7062 53.3588 48.6508 53.5032 48.553 53.6173C48.4552 53.7313 48.321 53.8078 48.1732 53.8337C48.2318 53.8617 48.2843 53.9011 48.3275 53.9497C48.4325 54.0431 48.508 54.1652 48.5448 54.3009L48.8043 54.9543H48.3625L48.1837 54.4766C48.1385 54.3527 48.0785 54.2347 48.0049 54.1253C47.963 54.0702 47.9103 54.0243 47.85 53.9905C47.7897 53.9567 47.7231 53.9356 47.6544 53.9286H47.2547H46.9777V54.9824L46.571 54.9508ZM46.9847 53.6019H47.749C48.2749 53.6019 48.2889 53.2858 48.2889 53.205C48.2889 53.0504 48.1522 52.8537 47.8261 52.8537H46.9847V53.6019Z" fill="#1A4084"/> <path d="M23.9692 54.9508V52.5375H24.8843C25.0498 52.5335 25.2153 52.5452 25.3786 52.5727C25.5076 52.6008 25.6279 52.6599 25.7292 52.7448C25.8676 52.8485 25.9784 52.9849 26.0517 53.1417C26.1174 53.335 26.1494 53.5382 26.1464 53.7424C26.1456 53.9125 26.1208 54.0816 26.0727 54.2447C26.0021 54.4689 25.8559 54.6614 25.659 54.7892C25.5706 54.8449 25.4734 54.8853 25.3716 54.9087C25.2238 54.9381 25.0734 54.9522 24.9228 54.9508H23.9692ZM24.3759 54.6206H24.8878C25.022 54.6203 25.1555 54.6002 25.2839 54.5609C25.3678 54.5321 25.4443 54.4854 25.5083 54.4239C25.5859 54.3539 25.6429 54.2641 25.6731 54.164C25.7223 54.0216 25.7472 53.872 25.7467 53.7213C25.7606 53.5336 25.7204 53.3459 25.631 53.1804C25.5623 53.0611 25.4545 52.9692 25.326 52.9204C25.1852 52.8594 25.0341 52.826 24.8808 52.8221H24.3794L24.3759 54.6206Z" fill="#1A4084"/> <path d="M26.2444 54.9298L27.1699 52.5165H27.6537L28.7265 54.9298H28.2742L27.9587 54.2272H26.9596L26.6791 54.9298H26.2444ZM27.0542 53.9392H27.8465C27.8465 53.9392 27.4784 53.0785 27.4434 52.9485C27.4118 53.1031 27.0542 53.9392 27.0542 53.9392Z" fill="#1A4084"/> <path d="M30.8545 54.9298L31.78 52.5165H32.2603L33.3331 54.9298H32.8844L32.5653 54.2272H31.5662L31.2857 54.9298H30.8545ZM31.6608 53.9392H32.4426C32.4426 53.9392 32.0745 53.0785 32.0359 52.9485C32.0184 53.1031 31.6608 53.9392 31.6608 53.9392Z" fill="#1A4084"/> <path d="M36.3481 54.9298L37.2737 52.5165H37.754L38.8267 54.9298H38.378L38.059 54.2272H37.0598L36.7794 54.9298H36.3481ZM37.1545 53.9392H37.9468C37.9468 53.9392 37.5962 53.0785 37.5436 52.9485C37.5121 53.1031 37.1545 53.9392 37.1545 53.9392Z" fill="#1A4084"/> <path d="M34.4409 54.9298V52.5165H36.2324V52.8397H34.8301V53.5422H36.0536V53.8478H34.8301V54.9333L34.4409 54.9298Z" fill="#1A4084"/> <path d="M48.8394 52.5376L49.8806 53.9146V54.9509H50.2978V53.9111L51.3425 52.5165H50.8201L50.0909 53.5387L49.3652 52.5376H48.8394Z" fill="#1A4084"/> <path d="M14.2371 40.9383C11.734 40.9383 9.7041 42.8176 9.7041 45.1325C9.7041 47.4475 11.734 49.3233 14.2371 49.3233C14.9157 49.3284 15.5879 49.1917 16.2109 48.9219C16.8338 48.6522 17.3938 48.2553 17.8551 47.7566C18.492 47.0273 18.8367 46.0875 18.8227 45.1185C18.8125 44.0062 18.3638 42.943 17.5746 42.1607C16.6634 41.3334 15.466 40.8948 14.2371 40.9383ZM14.2722 47.4791C13.8059 47.484 13.3487 47.3499 12.9586 47.0939C12.5686 46.8378 12.2632 46.4714 12.0814 46.0412C11.8996 45.6109 11.8495 45.1363 11.9375 44.6774C12.0255 44.2186 12.2475 43.7963 12.5755 43.4642C12.9035 43.1321 13.3226 42.9051 13.7796 42.8122C14.2366 42.7192 14.7108 42.7644 15.1421 42.9421C15.5734 43.1197 15.9422 43.4218 16.2018 43.81C16.4614 44.1981 16.6 44.6548 16.6 45.122C16.6019 45.43 16.5431 45.7353 16.4271 46.0205C16.311 46.3057 16.14 46.5652 15.9238 46.7842C15.7076 47.0031 15.4504 47.1771 15.167 47.2964C14.8836 47.4156 14.5796 47.4777 14.2722 47.4791Z" fill="#1A4084"/> <path d="M20.0251 49.1336V41.1033H23.0156L24.7895 46.3831L26.567 41.1033H29.5154V49.1336H27.4399L27.5065 43.06L25.5678 49.1336H24.0393L22.0866 43.0038L22.1567 49.1336H20.0251Z" fill="#1A4084"/> <path d="M37.8452 41.1033L40.4115 46.2074V49.1336H42.6306V46.1934L45.1478 41.1033H42.7884L41.4948 44.3281L40.2362 41.1033H37.8452Z" fill="#708AC0"/> <path d="M53.9998 49.1336L51.0024 44.9358L53.6423 41.1033H51.1076L49.8139 43.2742L48.2608 41.1033H45.7437L48.4186 44.855L45.3826 49.1336H47.8647L49.537 46.4287L51.4687 49.1336H53.9998Z" fill="#1A4084"/> <path d="M35.7486 44.8164H36.0501C36.3281 44.7093 36.5708 44.5269 36.7513 44.2895C36.9607 44.0012 37.0825 43.6584 37.1018 43.3024V43.2146C37.1018 41.7532 35.7907 41.1069 34.6478 41.1069H31.1665V49.1371H34.497C36.9791 49.1371 37.5296 47.7988 37.5296 46.896V46.4288C37.526 45.6735 36.7267 44.8164 35.7486 44.8164ZM33.2525 42.916H34.3428C34.5185 42.916 34.687 42.9859 34.8113 43.1104C34.9356 43.2349 35.0054 43.4038 35.0054 43.5799C35.0054 43.756 34.9356 43.9248 34.8113 44.0494C34.687 44.1739 34.5185 44.2438 34.3428 44.2438H33.2525V42.916ZM34.6548 47.307H33.2525V45.8105H34.6548C34.8528 45.8105 35.0428 45.8893 35.1828 46.0297C35.3228 46.17 35.4015 46.3603 35.4015 46.5587C35.4015 46.7572 35.3228 46.9475 35.1828 47.0878C35.0428 47.2281 34.8528 47.307 34.6548 47.307Z" fill="#1A4084"/> <path d="M6.58033 46.1337C6.4219 46.544 6.13928 46.8943 5.77212 47.1356C5.40495 47.3769 4.97165 47.497 4.53294 47.4791C4.22402 47.4814 3.91773 47.422 3.63204 47.3042C3.34635 47.1864 3.087 47.0126 2.86921 46.7931C2.65141 46.5736 2.47956 46.3127 2.36371 46.0257C2.24786 45.7387 2.19035 45.4315 2.19456 45.122C2.1775 44.8091 2.2262 44.4962 2.33748 44.2034C2.44877 43.9107 2.62018 43.6446 2.84061 43.4224C3.06104 43.2002 3.32558 43.0268 3.6171 42.9136C3.90863 42.8003 4.22064 42.7497 4.53294 42.7649C4.97734 42.746 5.41626 42.8688 5.78664 43.1156C6.15703 43.3624 6.43981 43.7205 6.59435 44.1384H8.92572C8.68294 43.2818 8.1955 42.515 7.5234 41.9323C6.68349 41.2444 5.62018 40.8905 4.53644 40.9382C3.50139 40.9145 2.48819 41.2385 1.65817 41.8586C1.13997 42.2308 0.718994 42.7227 0.430933 43.2926C0.142872 43.8626 -0.00377472 44.4937 0.00342681 45.1325C0.00342681 47.4475 2.03329 49.3233 4.53644 49.3233C6.66797 49.3233 8.45243 47.9638 8.93624 46.1337H6.58033Z" fill="#1A4084"/> <path d="M26.7458 25.2992C25.9561 25.3026 25.1826 25.0756 24.5196 24.6459L10.1458 15.0875C9.75116 14.8288 9.42651 14.4764 9.20068 14.0616C8.97486 13.6468 8.85487 13.1825 8.8514 12.71C8.84793 12.2375 8.96109 11.7715 9.18079 11.3534C9.4005 10.9353 9.71994 10.5781 10.1107 10.3136L23.871 0.888745C24.7235 0.308433 25.7295 -0.00359585 26.7601 -0.00735096C27.7907 -0.0111061 28.7989 0.293582 29.6556 0.867667L43.6017 10.289C43.9987 10.5549 44.3234 10.9156 44.5467 11.3385C44.7699 11.7615 44.8846 12.2335 44.8804 12.7119C44.8762 13.1904 44.7533 13.6603 44.5228 14.0793C44.2922 14.4983 43.9612 14.8532 43.5596 15.1121L29.3927 24.6248C28.5809 25.0687 27.6706 25.3006 26.7458 25.2992ZM26.7458 2.81727C26.2697 2.81817 25.8046 2.96126 25.4101 3.22827L11.5867 12.6531C11.5778 12.6568 11.5703 12.6632 11.5652 12.6714C11.5602 12.6796 11.5579 12.6892 11.5586 12.6988C11.5586 12.7304 11.5586 12.7374 11.5867 12.7445L25.659 22.0991C26.0254 22.3465 26.4582 22.4764 26.9 22.4714H26.9211C27.3731 22.4596 27.8123 22.3181 28.1867 22.0639L42.1047 12.7691C42.1328 12.7691 42.1538 12.7374 42.1538 12.6988C42.1549 12.6864 42.1521 12.674 42.1458 12.6633C42.1395 12.6526 42.1301 12.6441 42.1187 12.6391L28.0955 3.21773C27.6998 2.95444 27.2348 2.81505 26.7598 2.81727H26.7458Z" fill="#1A4084"/> <path d="M30.3813 19.3766L28.0113 17.7853C27.6294 17.561 27.1935 17.446 26.7509 17.4528C26.3082 17.4597 25.876 17.588 25.5012 17.824L23.3065 19.3907L20.8069 17.7116L24.0287 15.4634C24.8273 14.9069 25.7756 14.6062 26.7484 14.6012C27.7211 14.5962 28.6725 14.887 29.4768 15.4353L32.8669 17.687L30.3813 19.3766Z" fill="#1A4084"/> <path d="M35.924 15.6952L28.1271 10.4928C27.7161 10.223 27.2354 10.0793 26.7441 10.0793C26.2527 10.0793 25.772 10.223 25.361 10.4928L17.7744 15.6987L15.2888 14.0091L23.9902 8.11811C24.811 7.5446 25.7883 7.23858 26.7889 7.24172C27.7895 7.24487 28.7648 7.55702 29.582 8.13567L38.4026 13.9985L35.924 15.6952Z" fill="#708AC0"/> <path d="M26.7562 31.4045C25.7535 31.4045 24.8771 31.0989 23.7237 30.3506L8.83447 20.3005L8.88706 16.1168L24.6632 26.8203C25.3776 27.2104 26.1832 27.4019 26.9963 27.3747C27.8095 27.3475 28.6005 27.1027 29.2874 26.6657L44.8602 16.1273V20.2197L29.7431 30.5298C28.8622 31.1249 27.8183 31.4306 26.7562 31.4045Z" fill="#708AC0"/> <path d="M26.7563 37.6608C25.3084 37.6608 24.5371 37.1409 23.6606 36.5508L10.0896 27.3367C9.71556 27.0833 9.40888 26.7422 9.19627 26.3431C8.98365 25.9439 8.87152 25.4988 8.86963 25.0463V22.2712L24.3302 32.7394C25.0805 33.333 27.4294 34.1445 29.3015 32.7745L44.8743 22.2361V24.948C44.8741 25.4289 44.756 25.9023 44.5304 26.3268C44.3049 26.7512 43.9787 27.1137 43.5807 27.3823L29.9886 36.5964C29.0599 37.3027 27.9221 37.6774 26.7563 37.6608Z" fill="#1A4084"/> </svg>